<svg fill="#228BE6" xmlns="http://www.w3.org/2000/svg"  viewBox="0 0 50 50" width="60px" height="60px"><path d="M 25.111328 0 A 1.0001 1.0001 0 0 0 24.521484 0.1640625 C 21.091035 2.4189597 19.60444 4.8557195 19.191406 7.0195312 A 1.0007969 1.0007969 0 0 0 19.115234 7.0058594 C 19.115234 7.0058594 18.511642 6.9370472 17.556641 7.0039062 C 16.601639 7.070762 15.294252 7.2741365 13.888672 7.8183594 C 11.077511 8.9068052 7.802683 11.428414 6.0507812 16.683594 C 5.5972351 18.044232 4.939896 18.960504 4.2519531 19.355469 C 3.5640103 19.750434 2.7655097 19.805767 1.46875 19.117188 A 1.0001 1.0001 0 0 0 0 20 C 0 20 -0.011690245 24.117669 1.2949219 28.298828 C 1.9482279 30.389407 2.9303603 32.521811 4.4882812 34.183594 C 6.0462022 35.845376 8.2333333 37 11 37 L 12.503906 37 C 13.031706 38.748979 14.220587 40.148585 14.654297 40.78125 C 15.332733 41.771847 15.931138 43.760357 17.087891 45.566406 C 18.244644 47.372456 20.202991 49 23.320312 49 L 26.679688 49 C 29.789746 49 31.75044 47.410882 32.910156 45.617188 C 34.069873 43.823493 34.658378 41.834706 35.357422 40.763672 C 35.75385 40.15564 36.956816 38.754834 37.492188 37 L 39 37 C 41.766667 37 43.953798 35.845376 45.511719 34.183594 C 47.06964 32.521811 48.051772 30.389407 48.705078 28.298828 C 50.01169 24.117669 50 20 50 20 A 1.0001 1.0001 0 0 0 48.53125 19.117188 C 47.23449 19.805767 46.43599 19.750434 45.748047 19.355469 C 45.060104 18.960504 44.402765 18.044232 43.949219 16.683594 C 42.197317 11.428414 38.922489 8.9068052 36.111328 7.8183594 C 34.705748 7.2741365 33.398361 7.070762 32.443359 7.0039062 C 31.488358 6.9370503 30.884766 7.0058594 30.884766 7.0058594 A 1.0007969 1.0007969 0 0 0 30.464844 7.15625 C 30.091845 6.4651219 29.5214 5.7960636 28.708984 5.1953125 C 26.797926 3.7821566 26.206913 2.7017374 26.03125 2.0957031 C 25.943418 1.792686 25.952514 1.5998371 25.966797 1.4941406 C 25.98108 1.3884441 25.962891 1.453125 25.962891 1.453125 A 1.0001 1.0001 0 0 0 25.111328 0 z M 24.257812 2.9277344 C 24.648332 4.0259306 25.527302 5.3315081 27.519531 6.8046875 C 28.396541 7.4532031 28.759425 8.0495115 28.912109 8.5820312 C 29.064794 9.114551 29.010087 9.6317901 28.841797 10.136719 C 28.505211 11.146576 27.726562 11.939453 27.726562 11.939453 A 1.0001 1.0001 0 0 0 27.585938 12.105469 C 26.434587 12.604752 25.506606 13 25 13 C 24.53389 13 23.684517 12.650669 22.660156 12.208984 C 22.475112 12.01161 21.40584 10.815096 21.113281 9.0839844 C 20.835972 7.4431018 21.320333 5.3242825 24.257812 2.9277344 z M 18.548828 8.9726562 C 18.765433 8.9792742 18.884766 8.9941406 18.884766 8.9941406 A 1.0007969 1.0007969 0 0 0 19.103516 8.9960938 C 19.118052 9.1352812 19.117875 9.2814001 19.140625 9.4160156 C 19.251197 10.070287 19.443564 10.667146 19.669922 11.193359 C 19.141239 11.083989 18.592814 11 18 11 C 15.518372 11 13.460338 12.208577 12.095703 13.917969 C 10.731068 15.627361 10 17.827532 10 20 C 10 25.272626 11.111651 27.45809 12.34375 29.955078 C 12.726744 30.731866 12.734376 31.453639 12.621094 32.335938 C 12.519862 33.124384 12.304417 34.011137 12.257812 35 L 11 35 C 8.7666667 35 7.2037977 34.154624 5.9492188 32.816406 C 4.6946397 31.478189 3.8017721 29.610593 3.2050781 27.701172 C 2.3404168 24.934256 2.1547528 22.66494 2.0859375 21.332031 C 3.2343939 21.59521 4.3429795 21.609466 5.2480469 21.089844 C 6.560104 20.336559 7.4027649 18.955768 7.9492188 17.316406 C 9.5303169 12.573586 12.255739 10.595648 14.611328 9.6835938 C 16.37802 8.9995531 17.899015 8.9528023 18.548828 8.9726562 z M 31.451172 8.9726562 C 32.100985 8.9528023 33.62198 8.9995531 35.388672 9.6835938 C 37.744261 10.595648 40.469683 12.573586 42.050781 17.316406 C 42.597235 18.955768 43.439896 20.336559 44.751953 21.089844 C 45.65702 21.609466 46.765606 21.59521 47.914062 21.332031 C 47.845242 22.66494 47.659583 24.934256 46.794922 27.701172 C 46.198228 29.610593 45.30536 31.478189 44.050781 32.816406 C 42.796202 34.154627 41.233333 35 39 35 L 37.742188 35 C 37.695752 34.005071 37.480173 33.116959 37.378906 32.330078 C 37.265649 31.450023 37.272733 30.734879 37.65625 29.957031 C 38.888319 27.45911 40 25.272626 40 20 C 40 17.827532 39.268932 15.627361 37.904297 13.917969 C 36.539662 12.208577 34.481628 11 32 11 C 31.507601 11 31.04385 11.054374 30.595703 11.132812 C 30.644517 11.013314 30.696036 10.896279 30.738281 10.769531 C 30.912922 10.245558 31.012313 9.6393983 30.982422 9 A 1.0007969 1.0007969 0 0 0 31.115234 8.9941406 C 31.115234 8.9941406 31.234567 8.9792742 31.451172 8.9726562 z M 18 13 C 19.277778 13 20.435747 13.430781 21.558594 13.917969 C 22.68144 14.405157 23.735178 15 25 15 C 26.264822 15 27.31856 14.405157 28.441406 13.917969 C 29.564253 13.430781 30.722222 13 32 13 C 33.848372 13 35.288932 13.847158 36.341797 15.166016 C 37.394662 16.484874 38 18.285468 38 20 C 38 25.013374 37.111212 26.542186 35.863281 29.072266 C 35.253798 30.308418 35.261492 31.536991 35.396484 32.585938 C 35.531477 33.634883 35.759766 34.548655 35.759766 35.351562 C 35.759766 36.738124 34.381083 38.597136 33.681641 39.669922 C 32.700684 41.172887 32.170752 43.076945 31.230469 44.53125 C 30.290185 45.985555 29.169628 47 26.679688 47 L 23.320312 47 C 20.837635 47 19.714731 45.960982 18.771484 44.488281 C 17.828237 43.015581 17.306251 41.112794 16.304688 39.650391 C 15.608012 38.63413 14.240234 36.746004 14.240234 35.351562 C 14.240234 34.559244 14.468548 33.642998 14.603516 32.591797 C 14.738484 31.540596 14.746725 30.307525 14.136719 29.070312 C 12.888818 26.5413 12 25.013374 12 20 C 12 18.285468 12.605338 16.484874 13.658203 15.166016 C 14.711068 13.847158 16.151628 13 18 13 z M 20 27 L 20 30 C 20 30.501869 19.975721 31.024283 19.957031 31.542969 C 18.68649 31.398692 17.517578 31.291016 17.517578 31.291016 L 17.046875 31.253906 L 16.982422 31.720703 C 16.871039 32.521633 17.212202 33.291867 17.787109 33.861328 C 18.263726 34.33343 18.910441 34.676622 19.646484 34.857422 C 19.645905 34.859454 19.645112 34.863222 19.644531 34.865234 C 19.369531 35.836234 19.008453 36.462625 18.689453 37.015625 C 18.319453 37.656625 18 38.213 18 39 C 18 40.33 19.017 41.125 20 41.125 C 20.875 41.125 21.195281 41.647891 21.238281 41.712891 C 22.167281 43.133891 22.921047 45 24.998047 45 C 27.075047 45 27.828813 43.133891 28.757812 41.712891 C 28.798813 41.649891 29.125 41.125 30 41.125 C 30.983 41.125 32 40.319609 32 38.974609 C 32 38.156609 31.676734 37.582969 31.302734 36.917969 C 31.002493 36.384096 30.661095 35.775348 30.355469 34.857422 C 31.090831 34.676539 31.736252 34.333085 32.212891 33.861328 C 32.787825 33.292282 33.128262 32.521878 33.017578 31.720703 L 32.953125 31.255859 L 32.484375 31.291016 C 32.484375 31.291016 31.307029 31.396013 30.029297 31.539062 C 30.013587 31.022432 29.992193 30.502533 29.994141 30.001953 C 30.000178 28.375907 30 27 30 27 L 29 27 C 29 27 29.000178 28.374088 28.994141 29.998047 C 28.992073 30.536107 29.013115 31.097115 29.03125 31.652344 C 28.960137 31.661811 28.896459 31.666018 28.826172 31.675781 C 27.139514 31.910067 26.355469 32.148436 26.355469 32.148438 L 25.947266 32.271484 L 26.005859 32.695312 C 26.117229 33.496142 26.655 34.144071 27.363281 34.535156 C 27.934622 34.850629 28.62668 35.006061 29.361328 34.990234 C 29.374891 35.039602 29.386254 35.113588 29.400391 35.15625 C 29.737391 36.17725 30.122641 36.85825 30.431641 37.40625 C 30.774641 38.01525 31.001953 38.419609 31.001953 38.974609 C 31.001953 39.694609 30.493953 40.123047 30.001953 40.123047 C 29.410953 40.123047 28.769703 40.220766 28.220703 40.759766 C 27.811703 41.161766 27.348781 41.498969 26.800781 41.667969 C 26.212781 41.850969 25.58 42 25 42 C 24.42 42 23.788172 41.850922 23.201172 41.669922 C 22.653172 41.500922 22.188297 41.163719 21.779297 40.761719 C 21.231297 40.222719 20.591 40.126953 20 40.126953 C 19.515 40.126953 19 39.731953 19 39.001953 C 19 38.480953 19.221641 38.097625 19.556641 37.515625 C 19.886641 36.941625 20.296469 36.227672 20.605469 35.138672 C 20.61612 35.100827 20.624355 35.033577 20.634766 34.990234 C 21.371401 35.006854 22.06579 34.851294 22.638672 34.535156 C 23.347005 34.144271 23.884704 33.496291 23.996094 32.695312 L 24.054688 32.271484 L 23.642578 32.148438 C 23.642578 32.148438 22.869104 31.919674 21.183594 31.685547 C 21.104772 31.674598 21.033005 31.668821 20.953125 31.658203 C 20.974295 31.102111 21 30.540368 21 30 L 21 27 L 20 27 z M 31.824219 32.367188 C 31.748869 32.634124 31.753429 32.909224 31.509766 33.150391 C 31.1082 33.547844 30.486775 33.863254 29.755859 33.964844 C 29.024542 34.066428 28.340422 33.931364 27.845703 33.658203 C 27.539648 33.489211 27.465046 33.218584 27.320312 32.976562 C 27.563089 32.915262 27.856723 32.844466 28.546875 32.736328 C 28.655589 33.170927 29.031866 33.5 29.5 33.5 C 30.052 33.5 30.5 33.052 30.5 32.5 C 30.5 32.495502 30.494404 32.492706 30.494141 32.488281 C 31.047578 32.432716 31.514155 32.392961 31.824219 32.367188 z M 18.175781 32.369141 C 18.486026 32.395966 18.951451 32.435712 19.503906 32.492188 C 19.503789 32.495154 19.5 32.497001 19.5 32.5 C 19.5 33.052 19.948 33.5 20.5 33.5 C 20.966 33.5 21.340375 33.173781 21.451172 32.742188 C 22.145644 32.849964 22.436202 32.918277 22.679688 32.978516 C 22.534914 33.220428 22.460474 33.491196 22.154297 33.660156 C 21.65938 33.933271 20.975036 34.067944 20.244141 33.966797 C 19.512873 33.86522 18.891827 33.548179 18.490234 33.150391 C 18.247079 32.909539 18.251196 32.635411 18.175781 32.369141 z M 21 37 L 21 37.5 C 21 38.33 21.67 39 22.5 39 C 22.75 39 22.979688 38.930078 23.179688 38.830078 C 23.499688 39.520078 24.19 40 25 40 C 25.81 40 26.500312 39.520078 26.820312 38.830078 C 27.020312 38.930078 27.25 39 27.5 39 C 28.33 39 29 38.33 29 37.5 L 29 37 L 21 37 z"/></svg>