<?xml version="1.0" encoding="iso-8859-1"?>
<!-- Generator: Adobe Illustrator 19.0.0, SVG Export Plug-In . SVG Version: 6.00 Build 0)  -->
<svg version="1.1" id="Capa_1" xmlns="http://www.w3.org/2000/svg" xmlns:xlink="http://www.w3.org/1999/xlink" x="0px" y="0px"
	 viewBox="0 0 463.001 463.001" style="enable-background:new 0 0 463.001 463.001;" xml:space="preserve">
<g>
	<path d="M411.154,386.544c-8.369-12.258-20.048-20.771-33.772-24.615c-0.299-0.084-0.604-0.149-0.911-0.195l-51.631-7.746
		l-15.098-22.647c-1.42-2.13-3.771-3.322-6.198-3.336c-0.466-5.181-0.537-10.624-0.541-15.893
		c11.207-11.551,20.012-25.782,25.526-41.727c2.289,0.408,4.619,0.616,6.973,0.616c21.78,0,39.5-17.72,39.5-39.5
		c0-1.192-0.063-2.387-0.194-3.603C389.175,221.827,399,207.521,399,191.5c0-10.652-4.357-20.687-11.813-28
		c7.455-7.313,11.813-17.348,11.813-28c0-17.95-12.036-33.143-28.462-37.931C373.44,92.033,375,85.854,375,79.5
		c0-21.78-17.72-39.5-39.5-39.5c-3.032,0-6.059,0.368-9.021,1.086C323.408,22.345,307.098,8,287.5,8
		c-8.806,0-17.297,3.004-24.149,8.33C256.054,6.265,244.282,0,231.5,0s-24.553,6.265-31.85,16.33C192.797,11.003,184.308,8,175.5,8
		c-19.598,0-35.907,14.345-38.979,33.086C133.559,40.368,130.533,40,127.5,40C105.72,40,88,57.72,88,79.5
		c0,6.354,1.561,12.533,4.462,18.069C76.038,102.357,64,117.55,64,135.5c0,10.652,4.357,20.687,11.813,28
		C68.358,170.813,64,180.848,64,191.5c0,16.021,9.825,30.326,24.194,36.396C88.064,229.113,88,230.307,88,231.5
		c0,21.78,17.72,39.5,39.5,39.5c2.354,0,4.683-0.208,6.973-0.616c5.514,15.944,14.319,30.176,25.526,41.727
		c-0.004,5.271-0.075,10.715-0.541,15.894c-2.427,0.015-4.778,1.205-6.198,3.335l-15.098,22.647l-51.631,7.746
		c-0.308,0.046-0.612,0.111-0.911,0.195c-13.725,3.845-25.403,12.357-33.772,24.615C44.208,397.734,40,411.242,40,424.579v14.99
		C40,452.489,51.527,463,65.694,463H175.47c0.007,0,0.015,0.001,0.022,0.001c0.007,0,0.013-0.001,0.02-0.001h111.976
		c0.007,0,0.013,0.001,0.02,0.001c0.008,0,0.015-0.001,0.022-0.001h109.777C411.474,463,423,452.489,423,439.569v-14.99
		C423,411.242,418.793,397.734,411.154,386.544z M254.975,448c0.011-0.166,0.025-0.331,0.025-0.5c0-12.958-10.542-23.5-23.5-23.5
		S208,434.542,208,447.5c0,0.169,0.014,0.334,0.025,0.5h-26.376l-11.085-55.425l24.055,20.619c1.365,1.17,3.098,1.806,4.881,1.806
		c0.233,0,0.468-0.011,0.702-0.033c2.024-0.19,3.884-1.194,5.154-2.781l26.144-32.679l26.144,32.679
		c1.271,1.587,3.13,2.591,5.154,2.781c0.234,0.022,0.469,0.033,0.702,0.033c1.782,0,3.516-0.636,4.881-1.806l24.055-20.619
		L281.352,448H254.975z M240.026,448h-17.05c0.011-0.166,0.025-0.331,0.025-0.5c0-4.687,3.813-8.5,8.5-8.5s8.5,3.813,8.5,8.5
		C240,447.669,240.015,447.834,240.026,448z M143,231.569v-48c0-13.51,10.99-24.5,24.5-24.5h128c13.51,0,24.5,10.99,24.5,24.5v48
		c0,53.21-39.701,96.5-88.5,96.5S143,284.779,143,231.569z M231.5,343.069c20.95,0,40.462-6.747,56.774-18.32
		c0.16,3.003,0.408,6.002,0.806,8.953l-57.58,25.591l-57.58-25.591c0.399-2.95,0.646-5.949,0.806-8.953
		C191.039,336.323,210.551,343.069,231.5,343.069z M309.574,358.131l-45.063,38.626l-21.081-26.352l57.339-25.483L309.574,358.131z
		 M127.5,256c-13.51,0-24.5-10.99-24.5-24.5c0-1.986,0.339-4.102,1.066-6.658c0.568-2,0.282-4.146-0.791-5.925
		c-1.073-1.78-2.837-3.035-4.87-3.466C87.162,213.072,79,203,79,191.5c0-8.881,4.94-17.085,12.893-21.412
		c2.413-1.313,3.915-3.841,3.915-6.588s-1.502-5.274-3.915-6.588C83.941,152.585,79,144.381,79,135.5c0-13.51,10.99-24.5,24.5-24.5
		c0.318,0,0.847,0.072,1.407,0.148c0.411,0.056,0.822,0.11,1.236,0.155c3.276,0.36,6.407-1.467,7.708-4.499
		c1.301-3.031,0.467-6.558-2.053-8.686C106.208,93.396,103,86.61,103,79.5c0-13.51,10.99-24.5,24.5-24.5
		c4.392,0,8.629,1.216,12.593,3.612c2.486,1.503,5.618,1.436,8.036-0.175c2.419-1.609,3.69-4.472,3.264-7.346l-0.039-0.262
		C151.165,49.56,151,48.463,151,47.5c0-13.51,10.99-24.5,24.5-24.5c7.926,0,15.162,3.742,19.853,10.267
		c1.63,2.267,4.374,3.444,7.15,3.047c2.764-0.395,5.08-2.293,6.011-4.926C211.978,21.586,221.215,15,231.5,15
		s19.523,6.586,22.987,16.388c0.931,2.633,3.247,4.531,6.011,4.926c2.771,0.397,5.521-0.78,7.15-3.047
		C272.339,26.742,279.576,23,287.5,23c13.51,0,24.5,10.99,24.5,24.5c0,0.959-0.162,2.053-0.351,3.318l-0.041,0.278
		c-0.426,2.873,0.847,5.733,3.266,7.343c2.418,1.607,5.549,1.676,8.034,0.173c3.964-2.397,8.2-3.612,12.592-3.612
		c13.51,0,24.5,10.99,24.5,24.5c0,7.11-3.206,13.896-8.797,18.619c-2.521,2.128-3.354,5.654-2.054,8.686
		c1.3,3.031,4.418,4.866,7.708,4.499c0.415-0.045,0.826-0.1,1.237-0.156c0.56-0.075,1.088-0.147,1.405-0.147
		c13.51,0,24.5,10.99,24.5,24.5c0,8.881-4.94,17.085-12.893,21.412c-2.413,1.313-3.915,3.841-3.915,6.588s1.502,5.274,3.915,6.588
		C379.06,174.415,384,182.619,384,191.5c0,11.499-8.16,21.572-19.404,23.951c-2.033,0.431-3.796,1.685-4.869,3.465
		c-1.074,1.779-1.36,3.924-0.793,5.923c0.728,2.56,1.066,4.676,1.066,6.661c0,13.51-10.99,24.5-24.5,24.5
		c-1,0-1.988-0.081-2.969-0.199c1.612-7.805,2.469-15.912,2.469-24.232v-48c0-21.78-17.72-39.5-39.5-39.5h-128
		c-21.78,0-39.5,17.72-39.5,39.5v48c0,8.32,0.857,16.427,2.469,24.231C129.488,255.919,128.5,256,127.5,256z M162.233,344.922
		l57.339,25.483l-21.081,26.352l-45.063-38.626L162.233,344.922z M55,439.569v-14.99c0-19.008,11.758-41.543,34.234-48.084
		l53.249-7.989l9.631,8.255c0.012,0.07,0.017,0.139,0.031,0.209L166.352,448H65.694C59.897,448,55,444.14,55,439.569z M408,439.569
		c0,4.57-4.896,8.431-10.693,8.431H296.649l14.206-71.029c0.014-0.07,0.019-0.139,0.031-0.209l9.631-8.255l53.249,7.989
		C396.243,383.036,408,405.571,408,424.579V439.569z"/>
	<path d="M231.5,295c21.78,0,39.5-17.72,39.5-39.5s-17.72-39.5-39.5-39.5S192,233.72,192,255.5S209.72,295,231.5,295z M231.5,231
		c13.51,0,24.5,10.99,24.5,24.5S245.01,280,231.5,280S207,269.01,207,255.5S217.991,231,231.5,231z"/>
	<path d="M183.5,223c4.143,0,7.5-3.357,7.5-7.5v-8c0-4.143-3.357-7.5-7.5-7.5s-7.5,3.357-7.5,7.5v8
		C176,219.643,179.358,223,183.5,223z"/>
	<path d="M279.5,223c4.143,0,7.5-3.357,7.5-7.5v-8c0-4.143-3.357-7.5-7.5-7.5s-7.5,3.357-7.5,7.5v8
		C272,219.643,275.358,223,279.5,223z"/>
</g>
<g>
</g>
<g>
</g>
<g>
</g>
<g>
</g>
<g>
</g>
<g>
</g>
<g>
</g>
<g>
</g>
<g>
</g>
<g>
</g>
<g>
</g>
<g>
</g>
<g>
</g>
<g>
</g>
<g>
</g>
</svg>
