<svg width="470.004" height="470.004" xmlns="http://www.w3.org/2000/svg" xml:space="preserve" version="1.1">

 <g>
  <title>Layer 1</title>
  <g id="svg_1">
   <path id="svg_2" d="m403.09,325.834c2.763,-3.086 2.501,-7.828 -0.586,-10.59c-3.088,-2.764 -7.83,-2.5 -10.59,0.586c-39.924,44.601 -97.116,70.181 -156.912,70.181s-116.988,-25.58 -156.912,-70.181c-2.762,-3.086 -7.504,-3.349 -10.59,-0.586c-3.087,2.763 -3.349,7.504 -0.586,10.59c42.765,47.776 104.031,75.177 168.088,75.177s125.323,-27.4 168.088,-75.177z"/>
   <path id="svg_3" d="m235.002,266.012c50.586,0 91.741,-41.155 91.741,-91.742s-41.155,-91.741 -91.741,-91.741s-91.741,41.155 -91.741,91.741s41.155,91.742 91.741,91.742zm0,-168.483c42.315,0 76.741,34.426 76.741,76.741s-34.426,76.742 -76.741,76.742s-76.741,-34.426 -76.741,-76.742s34.426,-76.741 76.741,-76.741z"/>
   <path id="svg_4" d="m196.169,181.77c4.135,0 7.5,-3.365 7.5,-7.5s-3.365,-7.5 -7.5,-7.5c-4.135,0 -7.5,3.365 -7.5,7.5s3.364,7.5 7.5,7.5z"/>
   <path id="svg_5" d="m226.169,202.77c4.135,0 7.5,-3.365 7.5,-7.5s-3.365,-7.5 -7.5,-7.5c-4.135,0 -7.5,3.365 -7.5,7.5s3.364,7.5 7.5,7.5z"/>
   <path id="svg_6" d="m345.683,63.993l37.5,0l0,37.5c0,4.142 3.357,7.5 7.5,7.5s7.5,-3.358 7.5,-7.5l0,-37.5l37.5,0c4.143,0 7.5,-3.358 7.5,-7.5s-3.357,-7.5 -7.5,-7.5l-37.5,0l0,-37.5c0,-4.142 -3.357,-7.5 -7.5,-7.5s-7.5,3.358 -7.5,7.5l0,37.5l-37.5,0c-4.143,0 -7.5,3.358 -7.5,7.5s3.357,7.5 7.5,7.5z"/>
   <path id="svg_7" d="m37.119,63.993l37.5,0l0,37.5c0,4.142 3.357,7.5 7.5,7.5s7.5,-3.358 7.5,-7.5l0,-37.5l37.5,0c4.143,0 7.5,-3.358 7.5,-7.5s-3.357,-7.5 -7.5,-7.5l-37.5,0l0,-37.5c0,-4.142 -3.357,-7.5 -7.5,-7.5s-7.5,3.358 -7.5,7.5l0,37.5l-37.5,0c-4.143,0 -7.5,3.358 -7.5,7.5s3.358,7.5 7.5,7.5z"/>
   <path id="svg_8" d="m469.891,316.826c-1.07,-19.336 -9.605,-37.098 -24.035,-50.013c-14.43,-12.917 -33.042,-19.44 -52.36,-18.371c-19.336,1.07 -37.098,9.607 -50.013,24.037c-27.608,30.843 -67.148,48.532 -108.48,48.532s-80.872,-17.689 -108.48,-48.533c-12.916,-14.429 -30.678,-22.965 -50.014,-24.035c-19.336,-1.077 -37.933,5.453 -52.359,18.369c-14.431,12.916 -22.966,30.678 -24.036,50.014s5.453,37.931 18.369,52.36c55.08,61.534 133.998,96.825 216.52,96.825c35.771,0 70.881,-6.539 104.354,-19.435c3.865,-1.489 5.791,-5.83 4.303,-9.695c-0.012,-0.031 -0.028,-0.059 -0.04,-0.09c-1.523,-3.803 -5.821,-5.691 -9.655,-4.212c-31.746,12.23 -65.042,18.432 -98.962,18.432c-78.261,0 -153.105,-33.471 -205.344,-91.829c-10.243,-11.444 -15.417,-26.191 -14.568,-41.527s7.619,-29.423 19.063,-39.667c11.444,-10.244 26.195,-15.422 41.526,-14.568c15.335,0.849 29.423,7.619 39.667,19.063c30.45,34.018 74.063,53.528 119.656,53.528s89.206,-19.51 119.657,-53.528c10.243,-11.444 24.329,-18.214 39.665,-19.063c15.332,-0.846 30.084,4.326 41.527,14.57c11.443,10.243 18.214,24.331 19.063,39.666s-4.325,30.083 -14.568,41.527c-22.63,25.281 -49.451,45.962 -79.72,61.47c-3.657,1.874 -5.116,6.335 -3.295,10.005c0.015,0.03 0.025,0.06 0.04,0.089c1.889,3.687 6.41,5.144 10.095,3.255c31.914,-16.351 60.194,-38.158 84.056,-64.816c12.915,-14.429 19.438,-33.024 18.368,-52.36z"/>
  </g>
  <g id="svg_9"/>
  <g id="svg_10"/>
  <g id="svg_11"/>
  <g id="svg_12"/>
  <g id="svg_13"/>
  <g id="svg_14"/>
  <g id="svg_15"/>
  <g id="svg_16"/>
  <g id="svg_17"/>
  <g id="svg_18"/>
  <g id="svg_19"/>
  <g id="svg_20"/>
  <g id="svg_21"/>
  <g id="svg_22"/>
  <g id="svg_23"/>
  <rect stroke="#ffffff" id="svg_30" height="50.76369" width="42.0539" y="64.49439" x="62.07612" fill="#ffffff"/>
  <path id="svg_31" d="m367.82187,64.49439l42.0539,0l0,50.76369l-42.0539,0l0,-50.76369z" opacity="undefined" stroke="#ffffff" fill="#ffffff"/>
  <path stroke="#ffffff" id="svg_32" d="m63.58215,-2.0718l42.0539,0l0,50.76369l-42.0539,0l0,-50.76369z" opacity="undefined" fill="#ffffff"/>
  <rect stroke="#ffffff" id="svg_33" height="50.76369" width="42.0539" y="-2.07181" x="375.02761" fill="#ffffff"/>
 </g>
</svg>